<?xml version="1.0" encoding="UTF-8"?>
<svg xmlns="http://www.w3.org/2000/svg" xmlns:xlink="http://www.w3.org/1999/xlink" width="10px" height="10px" viewBox="0 0 10 10" version="1.1">
<g id="surface1">
<path style=" stroke:none;fill-rule:nonzero;fill:rgb(0%,0%,0%);fill-opacity:1;" d="M 9.726562 0.109375 C 9.925781 0.246094 10.03125 0.484375 9.992188 0.71875 L 8.742188 8.84375 C 8.710938 9.03125 8.597656 9.199219 8.429688 9.292969 C 8.261719 9.386719 8.0625 9.398438 7.882812 9.324219 L 5.546875 8.351562 L 4.210938 9.800781 C 4.035156 9.988281 3.761719 10.050781 3.523438 9.960938 C 3.28125 9.867188 3.125 9.632812 3.125 9.375 L 3.125 7.742188 C 3.125 7.664062 3.15625 7.589844 3.207031 7.53125 L 6.480469 3.960938 C 6.59375 3.835938 6.589844 3.648438 6.472656 3.53125 C 6.355469 3.414062 6.167969 3.40625 6.042969 3.519531 L 2.070312 7.046875 L 0.34375 6.183594 C 0.140625 6.078125 0.0078125 5.875 0 5.640625 C -0.0078125 5.410156 0.117188 5.195312 0.3125 5.082031 L 9.0625 0.0820312 C 9.273438 -0.0390625 9.53125 -0.0273438 9.726562 0.109375 Z M 9.726562 0.109375 "/>
</g>
</svg>
